<svg width="40" height="40" viewBox="0 0 40 40" fill="none" xmlns="http://www.w3.org/2000/svg">
<path d="M19.73 0C9.32998 0 0.81 8.08988 0 18.3799L10.61 22.8101C11.51 22.1901 12.6 21.8301 13.77 21.8301C13.87 21.8301 13.98 21.8301 14.08 21.8301L18.8 14.9302V14.8301C18.8 10.6801 22.15 7.2998 26.27 7.2998C30.39 7.2998 33.74 10.6801 33.74 14.8301C33.74 18.9901 30.39 22.3701 26.27 22.3701C26.21 22.3701 26.16 22.3701 26.1 22.3701L19.37 27.21C19.37 27.3 19.37 27.39 19.37 27.48C19.37 30.6 16.86 33.1401 13.77 33.1401C11.06 33.1401 8.79002 31.1801 8.27002 28.6001L0.680054 25.4302C3.03005 33.8202 10.67 39.9702 19.73 39.9702C30.67 39.9702 39.54 31.02 39.54 19.98C39.54 8.94998 30.67 0 19.73 0ZM12.41 30.3198L9.97998 29.3101C10.41 30.2101 11.15 30.9701 12.14 31.3901C14.28 32.2901 16.75 31.2601 17.64 29.1001C18.08 28.0601 18.08 26.9001 17.65 25.8501C17.22 24.8001 16.42 23.9898 15.38 23.5498C14.35 23.1198 13.25 23.13 12.28 23.5L14.79 24.5498C16.37 25.2198 17.12 27.0501 16.46 28.6401C15.8 30.2301 13.99 30.9898 12.41 30.3198ZM31.24 14.8301C31.24 12.0601 29.01 9.81006 26.27 9.81006C23.52 9.81006 21.29 12.0601 21.29 14.8301C21.29 17.6001 23.52 19.8501 26.27 19.8501C29.01 19.8501 31.24 17.6001 31.24 14.8301ZM22.54 14.8198C22.54 12.7398 24.21 11.0498 26.28 11.0498C28.34 11.0498 30.01 12.7398 30.01 14.8198C30.01 16.9098 28.34 18.6001 26.28 18.6001C24.21 18.6001 22.54 16.9098 22.54 14.8198Z" fill="#6C69FF"/>
</svg>
